<svg width="1200" height="760" viewBox="0 0 1200 760" fill="none" xmlns="http://www.w3.org/2000/svg">
  <defs>
    <linearGradient id="bg4" x1="0" y1="0" x2="1200" y2="760" gradientUnits="userSpaceOnUse">
      <stop stop-color="#020617"/>
      <stop offset="1" stop-color="#0f766e"/>
    </linearGradient>
  </defs>
  <rect width="1200" height="760" rx="36" fill="url(#bg4)"/>
  <rect x="190" y="130" width="820" height="500" rx="26" fill="#0b1120" stroke="#22d3ee" stroke-width="5"/>
  <path d="M250 220 H950" stroke="#155e75" stroke-width="3"/>
  <path d="M250 310 H950" stroke="#155e75" stroke-width="3"/>
  <path d="M250 400 H950" stroke="#155e75" stroke-width="3"/>
  <path d="M250 490 H950" stroke="#155e75" stroke-width="3"/>
  <circle cx="350" cy="265" r="24" fill="#38bdf8"/>
  <circle cx="500" cy="355" r="24" fill="#4ade80"/>
  <circle cx="650" cy="265" r="24" fill="#f59e0b"/>
  <circle cx="800" cy="355" r="24" fill="#fb7185"/>
  <path d="M350 265 C430 300 430 322 500 355" stroke="#67e8f9" stroke-width="5"/>
  <path d="M500 355 C575 315 575 300 650 265" stroke="#86efac" stroke-width="5"/>
  <path d="M650 265 C725 305 725 330 800 355" stroke="#fcd34d" stroke-width="5"/>
  <text x="250" y="575" fill="#a5f3fc" font-size="34" font-family="Arial">Lien minh mo rong trong ky nguyen so</text>
</svg>
